#!OML:ASF X:\für Bonn\!DataBase\2005_08_10_Bjorn_Final\c3d\bjorn.ASF
:FULLY-SPECIFIED
:DEGREES
357
root 0.730309 2.17895 17.8497 -430.494 -168.815 -714.596
lowerback 42.1533 4.35595 10.2495
upperback 28.4526 -4.59029 4.95299
thorax 13.1353 -7.65645 -0.0732507
lowerneck 14.4576 1.77439 -1.68288
upperneck 14.2437 0.585173 -8.16466
head 2.19076 -0.73364 -2.42602
rclavicle -3.75206e-015 -7.65321e-015
rhumerus -249.167 -194.953 79.7017
rradius 75.1344
rwrist -75.2113
rhand -31.0529 -31.6987
rfingers 7.12502
rthumb -4.33421 -61.6344
lclavicle -3.75206e-015 -7.65321e-015
lhumerus -72.9208 -18.7087 104.617
lradius 72.2612
lwrist 53.023
lhand -34.5227 -329.939
lfingers 7.12502
lthumb -7.68406 59.9012
rfemur -88.0618 -60.6622 5.32754
rtibia 135.951
rfoot 27.4781 27.8133
rtoes 0.732746
lfemur 117.824 167.67 157.318
ltibia 80.4178
lfoot 18.6938 3.82108
ltoes -9.15558
358
root 0.723817 2.17839 17.8509 -430.485 -168.865 -714.473
lowerback 41.9246 4.40629 10.143
upperback 28.4567 -4.53391 4.96629
thorax 13.1966 -7.61985 -0.0316598
lowerneck 14.607 1.69389 -1.76378
upperneck 14.2854 0.433146 -8.06155
head 2.17384 -0.818334 -2.37292
rclavicle 1.27346e-014 -3.0265e-014
rhumerus -249.228 -195.45 79.8459
rradius 75.2259
rwrist -76.0448
rhand -30.3046 -32.0549
rfingers 7.12502
rthumb -3.61159 -62.0041
lclavicle 1.27346e-014 -3.0265e-014
lhumerus -73.1124 -18.5921 104.621
lradius 72.6984
lwrist 53.3714
lhand -34.7342 -329.826
lfingers 7.12502
lthumb -7.88823 60.0069
rfemur -87.9973 -60.5405 5.35885
rtibia 135.945
rfoot 27.4827 27.7005
rtoes 0.793536
lfemur 118.597 167.531 157.263
ltibia 78.982
lfoot 18.5929 4.00688
ltoes -8.94889
359
root 0.717343 2.17823 17.8517 -430.471 -168.931 -714.339
lowerback 41.7196 4.42484 10.0694
upperback 28.4354 -4.4886 4.95462
thorax 13.2173 -7.57594 -0.0242643
lowerneck 14.8033 1.62582 -1.84026
upperneck 14.3219 0.290865 -7.93045
head 2.14833 -0.897652 -2.31113
rclavicle 3.56384e-014 -9.14409e-015
rhumerus -249.374 -196.006 79.924
rradius 75.3677
rwrist -76.9063
rhand -29.5589 -32.4491
rfingers 7.12502
rthumb -2.8915 -62.4093
lclavicle 3.56384e-014 -9.14409e-015
lhumerus -73.3451 -18.4593 104.613
lradius 73.1582
lwrist 53.7189
lhand -34.8937 -329.546
lfingers 7.12502
lthumb -8.04217 60.2809
rfemur -87.9285 -60.4146 5.40011
rtibia 135.938
rfoot 27.532 27.5496
rtoes 1.1348
lfemur 119.374 167.381 157.221
ltibia 77.5181
lfoot 18.4877 4.20901
ltoes -8.72107
360
root 0.710951 2.17717 17.8514 -430.464 -168.976 -714.218
lowerback 41.5446 4.44699 9.97915
upperback 28.4101 -4.44172 4.93738
thorax 13.2232 -7.53487 -0.0119324
lowerneck 14.9408 1.56498 -1.96014
upperneck 14.435 0.150344 -7.74929
head 2.15842 -0.983821 -2.22676
rclavicle 5.23347e-014 -1.91765e-014
rhumerus -249.578 -196.57 79.9993
rradius 75.5395
rwrist -77.6756
rhand -28.6561 -32.9142
rfingers 7.12502
rthumb -2.01957 -62.8844
lclavicle 5.23347e-014 -1.91765e-014
lhumerus -73.6014 -18.383 104.648
lradius 73.6085
lwrist 54.124
lhand -35.1411 -329.346
lfingers 7.12502
lthumb -8.28092 60.4719
rfemur -87.8755 -60.2452 5.42726
rtibia 135.937
rfoot 27.5243 27.4164
rtoes 1.20992
lfemur 120.173 167.224 157.162
ltibia 76.0272
lfoot 18.4184 4.42929
ltoes -8.3909
361
root 0.704538 2.1771 17.849 -430.447 -169.036 -714.085
lowerback 41.3494 4.46891 9.90431
upperback 28.3916 -4.39773 4.93772
thorax 13.2474 -7.49612 0.00954533
lowerneck 15.0242 1.50009 -2.11372
upperneck 14.5594 0.00443975 -7.5453
head 2.18113 -1.07433 -2.1293
rclavicle -4.42234e-014 -5.63058e-014
rhumerus -249.77 -197.16 80.0908
rradius 75.7001
rwrist -78.2877
rhand -27.5245 -33.3272
rfingers 7.12502
rthumb -0.926638 -63.3049
lclavicle -4.42234e-014 -5.63058e-014
lhumerus -73.8653 -18.3356 104.745
lradius 74.0749
lwrist 54.5339
lhand -35.4809 -329.069
lfingers 7.12502
lthumb -8.60885 60.7354
rfemur -87.8394 -60.1465 5.4778
rtibia 135.957
rfoot 27.5002 27.3111
rtoes 1.28963
lfemur 120.96 167.074 157.125
ltibia 74.5191
lfoot 18.3449 4.69067
ltoes -7.86246
362
root 0.697805 2.17693 17.8457 -430.444 -169.113 -713.959
lowerback 41.1751 4.47786 9.83214
upperback 28.371 -4.37324 4.92253
thorax 13.2623 -7.4687 0.0184425
lowerneck 15.1267 1.45253 -2.29186
upperneck 14.6831 -0.127833 -7.33389
head 2.2016 -1.1604 -2.02588
rclavicle -1.40392e-015 -2.24627e-014
rhumerus -250.01 -197.841 80.1465
rradius 75.855
rwrist -78.7726
rhand -26.2807 -33.6566
rfingers 7.12502
rthumb 0.274622 -63.6361
lclavicle -1.40392e-015 -2.24627e-014
lhumerus -74.1536 -18.2963 104.87
lradius 74.5384
lwrist 54.9684
lhand -35.831 -328.803
lfingers 7.12502
lthumb -8.94675 60.9872
rfemur -87.7539 -60.0264 5.4915
rtibia 135.978
rfoot 27.522 27.1728
rtoes 1.58754
lfemur 121.767 166.911 157.112
ltibia 73.0068
lfoot 18.2761 4.95764
ltoes -7.56787
363
root 0.690796 2.17624 17.842 -430.436 -169.188 -713.84
lowerback 41.0251 4.49142 9.76478
upperback 28.3421 -4.33609 4.91174
thorax 13.26 -7.43451 0.0302126
lowerneck 15.2357 1.40328 -2.46078
upperneck 14.822 -0.264163 -7.11127
head 2.22679 -1.24903 -1.92098
rclavicle 5.57839e-014 2.13694e-015
rhumerus -250.235 -198.541 80.1849
rradius 75.9947
rwrist -79.1693
rhand -24.993 -34.1042
rfingers 7.12502
rthumb 1.51832 -64.0785
lclavicle 5.57839e-014 2.13694e-015
lhumerus -74.4698 -18.3335 105.078
lradius 74.977
lwrist 55.4254
lhand -36.2828 -328.578
lfingers 7.12502
lthumb -9.38272 61.1934
rfemur -87.7077 -59.8481 5.53461
rtibia 135.998
rfoot 27.4989 27.0484
rtoes 1.61611
lfemur 122.563 166.746 157.097
ltibia 71.4884
lfoot 18.2325 5.29726
ltoes -6.87826
364
root 0.683808 2.17604 17.8378 -430.424 -169.279 -713.707
lowerback 40.8707 4.49563 9.70482
upperback 28.311 -4.31233 4.91119
thorax 13.2584 -7.40872 0.0521546
lowerneck 15.3595 1.35825 -2.6878
upperneck 14.9176 -0.405158 -6.84803
head 2.23531 -1.33913 -1.79174
rclavicle -8.89561e-015 -4.59193e-014
rhumerus -250.445 -199.286 80.2668
rradius 76.0852
rwrist -79.5901
rhand -23.6274 -34.6439
rfingers 7.12502
rthumb 2.83724 -64.6048
lclavicle -8.89561e-015 -4.59193e-014
lhumerus -74.7776 -18.382 105.358
lradius 75.3581
lwrist 55.8274
lhand -36.804 -328.437
lfingers 7.12502
lthumb -9.88551 61.3105
rfemur -87.6627 -59.738 5.60606
rtibia 136.03
rfoot 27.4437 26.9835
rtoes 1.5976
lfemur 123.339 166.581 157.105
ltibia 69.9818
lfoot 18.2436 5.4695
ltoes -6.92772
365
root 0.67636 2.17552 17.833 -430.422 -169.364 -713.593
lowerback 40.7443 4.49257 9.65867
upperback 28.2875 -4.2963 4.8736
thorax 13.2561 -7.38262 0.0287798
lowerneck 15.4719 1.32353 -2.86304
upperneck 15.0405 -0.526378 -6.5785
head 2.25629 -1.41858 -1.67121
rclavicle -3.94091e-014 -4.07509e-015
rhumerus -250.618 -200.077 80.3005
rradius 76.1237
rwrist -80.0332
rhand -22.195 -35.2697
rfingers 7.12502
rthumb 4.22044 -65.2076
lclavicle -3.94091e-014 -4.07509e-015
lhumerus -75.0956 -18.4725 105.633
lradius 75.7361
lwrist 56.3044
lhand -37.4306 -328.291
lfingers 7.12502
lthumb -10.49 61.4274
rfemur -87.583 -59.5347 5.61639
rtibia 136.055
rfoot 27.4432 26.8401
rtoes 1.80751
lfemur 124.134 166.417 157.119
ltibia 68.4855
lfoot 18.2436 5.67432
ltoes -6.72561
366
root 0.669442 2.17509 17.8259 -430.391 -169.454 -713.481
lowerback 40.6021 4.49499 9.59709
upperback 28.2565 -4.27372 4.84658
thorax 13.2488 -7.3541 0.0239291
lowerneck 15.6418 1.28327 -3.06616
upperneck 15.0875 -0.662097 -6.283
head 2.24274 -1.50051 -1.5353
rclavicle 3.97569e-016 1.73937e-014
rhumerus -250.795 -200.932 80.3462
rradius 76.1263
rwrist -80.4377
rhand -20.6339 -35.8999
rfingers 7.12502
rthumb 5.72778 -65.8025
lclavicle 3.97569e-016 1.73937e-014
lhumerus -75.4053 -18.5986 105.982
lradius 76.0589
lwrist 56.8106
lhand -38.2011 -328.211
lfingers 7.12502
lthumb -11.2333 61.4678
rfemur -87.6128 -59.43 5.71851
rtibia 136.108
rfoot 27.4162 26.7469
rtoes 1.89532
lfemur 124.867 166.248 157.128
ltibia 67.0203
lfoot 18.2466 5.80319
ltoes -6.83227
367
root 0.661869 2.17455 17.8203 -430.381 -169.54 -713.369
lowerback 40.4824 4.50114 9.55282
upperback 28.2317 -4.2488 4.83655
thorax 13.2462 -7.32855 0.0281509
lowerneck 15.7942 1.22978 -3.2666
upperneck 15.1518 -0.814776 -5.9915
head 2.23855 -1.59205 -1.4018
rclavicle 1.59028e-014 -2.84262e-014
rhumerus -251.012 -201.861 80.3445
rradius 76.1658
rwrist -80.8236
rhand -19.07 -36.5391
rfingers 7.12502
rthumb 7.23758 -66.3953
lclavicle 1.59028e-014 -2.84262e-014
lhumerus -75.697 -18.752 106.364
lradius 76.3278
lwrist 57.2571
lhand -38.8806 -328.217
lfingers 7.12502
lthumb -11.8885 61.4251
rfemur -87.5733 -59.2496 5.74816
rtibia 136.147
rfoot 27.4158 26.6432
rtoes 1.98398
lfemur 125.621 166.095 157.149
ltibia 65.5804
lfoot 18.2026 5.87609
ltoes -7.15168
